<svg width="667" height="125" viewBox="0 0 667 125" fill="none" xmlns="http://www.w3.org/2000/svg">
<g id="Logo Primary">
<g id="Logotype">
<path id="Vector" d="M80.625 82.2188L80.3774 83.4188C77.5349 97.4213 67.8375 105.131 53.0625 105.131C32.16 105.131 19.68 89.9588 19.68 64.5488C19.68 52.1888 22.7699 41.9138 28.6274 34.8488C34.4399 27.8288 42.885 24.1163 53.0625 24.1163C67.8525 24.1163 77.5499 31.8263 80.3774 45.8288L80.6175 47.0288H101.31L101.017 45.2813C96.8475 20.1713 78.915 5.17877 53.055 5.17877C37.3275 5.17877 23.9775 10.8413 14.4525 21.5663C5.00251 32.2088 0 47.0738 0 64.5488C0 82.0238 4.99501 97.0013 14.4525 107.659C23.97 118.391 37.32 124.061 53.055 124.061C78.84 124.061 96.7724 109.069 101.017 83.9663L101.31 82.2188H80.61H80.625Z" fill="#EFF3FB"/>
<path id="Vector_2" d="M165.615 94.8488L165.3 95.9213C163.125 103.256 157.425 106.819 147.863 106.819C142.425 106.819 137.43 104.756 133.8 101.021C130.298 97.4138 128.31 92.5688 128.137 87.2738H184.537L184.68 85.9313C185.055 82.3463 185.13 79.7588 185.13 76.7438C185.13 53.5238 170.79 38.5238 148.597 38.5238C136.455 38.5238 126.225 42.8513 119.017 51.0488C112.357 58.6163 108.69 69.1988 108.69 80.8538C108.69 92.5088 112.357 103.166 119.01 110.756C126.217 118.984 136.448 123.326 148.597 123.326C166.995 123.326 180.863 113.119 184.793 96.6938L185.235 94.8413H165.615V94.8488ZM128.648 72.8138C129.938 61.7963 137.46 55.0313 148.597 55.0313C159.735 55.0313 166.8 61.3313 167.197 72.8138H128.64H128.648Z" fill="#EFF3FB"/>
<path id="Vector_3" d="M230.542 39.9938C222.345 39.9938 216.315 42.7838 212.167 48.4988L209.88 39.9938H194.085V121.939H213.165V82.0313C213.165 73.4138 213.862 68.7938 215.76 64.9238C218.137 59.4113 222.697 57.1613 231.495 57.1613H242.025V39.9863H230.535L230.542 39.9938Z" fill="#EFF3FB"/>
<path id="Vector_4" d="M299.317 56.5763V39.9938H282.21V15.4613H263.055V36.4238C263.055 38.0513 262.485 39.9938 259.785 39.9938H248.37V56.5763H263.055V106.774C263.055 117.259 268.027 121.931 279.172 121.931H299.325V104.539H285.637C282.952 104.539 282.217 103.744 282.217 100.826V56.5763H299.325H299.317Z" fill="#EFF3FB"/>
<path id="Vector_5" d="M330.247 39.9938H311.235V121.939H330.247V39.9938Z" fill="#EFF3FB"/>
<path id="Vector_6" d="M330.247 15.4613H311.242V33.9038H330.247V15.4613Z" fill="#EFF3FB"/>
<path id="Vector_7" d="M396.39 39.9938L377.932 100.481L359.617 39.9938H339.18L365.932 121.939H390.067L416.82 39.9938H396.39Z" fill="#EFF3FB"/>
<path id="Vector_8" d="M496.62 105.566C493.162 105.566 491.88 104.284 491.88 100.826V68.4413C491.88 55.5938 488.257 38.5238 456.967 38.5238C434.925 38.5238 423.007 47.2838 420.525 65.2988L420.292 67.0013H439.71L439.935 65.7713C441.487 57.3038 446.325 54.0038 457.185 54.0038C468.592 54.0038 473.46 57.7538 473.46 66.5288C473.46 72.3863 470.197 72.8138 464.827 72.8138H449.85C430.102 72.8138 418.312 82.0238 418.312 97.4438C418.312 112.864 430.702 123.326 450.652 123.326C463.762 123.326 472.005 119.021 476.827 115.024C479.28 119.666 484.02 121.931 491.257 121.931H501.42V105.566H496.612H496.62ZM452.925 108.206C449.28 108.206 437.385 107.419 437.385 97.2938C437.385 90.6413 442.44 87.2663 452.407 87.2663H472.935V91.3463C472.935 101.906 465.45 108.206 452.917 108.206H452.925Z" fill="#EFF3FB"/>
<path id="Vector_9" d="M530.467 15.4613H511.455V121.931H530.467V15.4613Z" fill="#EFF3FB"/>
<path id="Vector_10" d="M597.03 94.8488L596.715 95.9213C594.54 103.256 588.84 106.819 579.277 106.819C573.84 106.819 568.845 104.756 565.215 101.021C561.712 97.4138 559.725 92.5688 559.553 87.2738H615.952L616.095 85.9313C616.47 82.3463 616.545 79.7588 616.545 76.7438C616.545 53.5238 602.205 38.5238 580.012 38.5238C567.87 38.5238 557.64 42.8513 550.432 51.0488C543.772 58.6163 540.105 69.1988 540.105 80.8538C540.105 92.5088 543.772 103.166 550.425 110.756C557.632 118.984 567.862 123.326 580.012 123.326C598.41 123.326 612.277 113.119 616.207 96.6938L616.65 94.8413H597.03V94.8488ZM560.062 72.8138C561.352 61.7963 568.875 55.0313 580.012 55.0313C591.15 55.0313 598.215 61.3313 598.612 72.8138H560.055H560.062Z" fill="#EFF3FB"/>
</g>
<g id="Symbol">
<g id="Symbol_2">
<path id="Vector_11" d="M642.539 56.0723L657.656 48.5167C663.33 45.6814 666.915 39.8845 666.915 33.5425V5.1158C666.915 4.59981 666.451 4.20492 665.94 4.28916L662.542 4.85517C657.224 5.74236 651.761 4.89466 646.962 2.43845L642.56 0.187572C642.076 -0.0625241 641.501 -0.0625241 641.019 0.187572L636.618 2.43845C631.819 4.89466 626.356 5.74236 621.037 4.85517L617.64 4.28916C617.128 4.20492 616.665 4.59718 616.665 5.1158V33.5425C616.665 39.8845 620.25 45.6814 625.924 48.5167L641.041 56.0723C641.512 56.3092 642.068 56.3092 642.539 56.0723Z" fill="#0086FF"/>
<path id="Vector_12" d="M641.789 56.2487C642.044 56.2487 642.302 56.1908 642.537 56.0723L657.654 48.5167C663.327 45.6814 666.912 39.8845 666.912 33.5425V5.1158C666.912 4.59981 666.449 4.20492 665.938 4.28916L662.54 4.85518C657.222 5.74236 651.759 4.89467 646.959 2.43846L642.558 0.187575C642.315 0.0612108 642.052 0.000671387 641.786 0.000671387V56.2487H641.789Z" fill="#0072D9"/>
</g>
</g>
</g>
</svg>
